# xmcd
#
# Track frame offsets: 
#        150
#        1846
#        13588
#        36541
#        68413
#        95285
#        99292
#        146462
#        171047
#        195926
#        213631
#        236023
#        238934
#
# Disc length: 3822 seconds
#
# Revision: 0
# Processed by: cddbd v1.5.2PL0 Copyright (c) Steve Scherf et al.
# Submitted via: ExactAudioCopy v0.99pb4
#
DISCID=a10eec0d
DTITLE=The Allman Brothers Band - Live at Jazz Fest 2007
DYEAR=2007
DGENRE=Blues
TTITLE0=Introduction
TTITLE1=Don't Want You No More
TTITLE2=Cross To Bear
TTITLE3=Ain't Wastin' Time
TTITLE4=Guilded Splinters
TTITLE5=Equipment change
TTITLE6=Rockin' Horse
TTITLE7=Statesboro Blues
TTITLE8=Melissa
TTITLE9=Trouble No More
TTITLE10=Into The Mystic
TTITLE11=Equipment check/tuning
TTITLE12=Desdemona
EXTD=
EXTT0=
EXTT1=
EXTT2=
EXTT3=
EXTT4=
EXTT5=
EXTT6=
EXTT7=
EXTT8=
EXTT9=
EXTT10=
EXTT11=
EXTT12=
PLAYORDER=
